<?xml version="1.0" standalone="no"?>
<svg xmlns:xlink="http://www.w3.org/1999/xlink" id="wave" style="transform:rotate(0deg); transition: 0.3s" viewBox="0 0 1440 130" version="1.1" xmlns="http://www.w3.org/2000/svg"><defs><linearGradient id="sw-gradient-0" x1="0" x2="0" y1="1" y2="0"><stop stop-color="rgba(25, 52, 169, 1)" offset="0%"/><stop stop-color="rgba(25, 52, 169, 1)" offset="100%"/></linearGradient></defs><path style="transform:translate(0, 0px); opacity:1" fill="url(#sw-gradient-0)" d="M0,13L60,26C120,39,240,65,360,82.3C480,100,600,108,720,97.5C840,87,960,56,1080,56.3C1200,56,1320,87,1440,95.3C1560,104,1680,91,1800,78C1920,65,2040,52,2160,49.8C2280,48,2400,56,2520,69.3C2640,82,2760,100,2880,104C3000,108,3120,100,3240,88.8C3360,78,3480,65,3600,54.2C3720,43,3840,35,3960,45.5C4080,56,4200,87,4320,91C4440,95,4560,74,4680,60.7C4800,48,4920,43,5040,45.5C5160,48,5280,56,5400,52C5520,48,5640,30,5760,28.2C5880,26,6000,39,6120,36.8C6240,35,6360,17,6480,15.2C6600,13,6720,26,6840,32.5C6960,39,7080,39,7200,47.7C7320,56,7440,74,7560,80.2C7680,87,7800,82,7920,82.3C8040,82,8160,87,8280,91C8400,95,8520,100,8580,101.8L8640,104L8640,130L8580,130C8520,130,8400,130,8280,130C8160,130,8040,130,7920,130C7800,130,7680,130,7560,130C7440,130,7320,130,7200,130C7080,130,6960,130,6840,130C6720,130,6600,130,6480,130C6360,130,6240,130,6120,130C6000,130,5880,130,5760,130C5640,130,5520,130,5400,130C5280,130,5160,130,5040,130C4920,130,4800,130,4680,130C4560,130,4440,130,4320,130C4200,130,4080,130,3960,130C3840,130,3720,130,3600,130C3480,130,3360,130,3240,130C3120,130,3000,130,2880,130C2760,130,2640,130,2520,130C2400,130,2280,130,2160,130C2040,130,1920,130,1800,130C1680,130,1560,130,1440,130C1320,130,1200,130,1080,130C960,130,840,130,720,130C600,130,480,130,360,130C240,130,120,130,60,130L0,130Z"/></svg>