<svg id="Capa_4" data-name="Capa 4" xmlns="http://www.w3.org/2000/svg" viewBox="0 0 1920 538.28"><defs><style>.cls-1{fill:#128cff;}</style></defs><title>cloud3</title><path class="cls-1" d="M0,812c85-19,99,60,99,60s46-53,99-11c0,0,35-101,125-50,0,0,66-112,146-16,0,0,37-20,70,5,0,0,36-72,115-46,0,0,30-40,94-22,0,0,51-85,119-10,0,0,36-32,80-13,0,0,42-63,96-37,0,0,34-58,101-29,0,0,71-49,115,30,0,0,74-49,89,38,0,0,61-39,100,2,0,0,113-121,178,47,0,0,43-45,91-23,0,0-12-71,40-86-1.32,3.2-14-157,126-95,0,0,26-20,37-12v536H0Z" transform="translate(0 -541.72)"/></svg>