<svg id="er1mc4i67ixn1" xmlns="http://www.w3.org/2000/svg" xmlns:xlink="http://www.w3.org/1999/xlink" viewBox="0 0 1920 437.320000" shape-rendering="geometricPrecision" text-rendering="geometricPrecision"><style><![CDATA[#er1mc4i67ixn2_to {animation: er1mc4i67ixn2_to__to 10000ms linear infinite normal forwards}@keyframes er1mc4i67ixn2_to__to { 0% {transform: translate(3840px,-642.680000px)} 50% {transform: translate(1920px,-642.680000px)} 100% {transform: translate(20px,-642.680000px)} }#er1mc4i67ixn3_to {animation: er1mc4i67ixn3_to__to 10000ms linear infinite normal forwards}@keyframes er1mc4i67ixn3_to__to { 0% {transform: translate(0px,-642.680000px)} 50% {transform: translate(-1900px,-642.680000px)} 100% {transform: translate(-3840px,-642.680000px)} }#er1mc4i67ixn4_to {animation: er1mc4i67ixn4_to__to 10000ms linear infinite normal forwards}@keyframes er1mc4i67ixn4_to__to { 0% {transform: translate(1920px,-642.681445px)} 50% {transform: translate(1920px,-642.681445px)} 100% {transform: translate(0px,-642.681445px)} }]]></style><g id="er1mc4i67ixn2_to" transform="translate(3840,-642.680000)"><path id="er1mc4i67ixn2" d="M0,728C50,692,117,741,117,741C117,741,297,590,364,822C364,822,399,821,437,865C437,865,524,794,598,877C598,877,644,812,724,849C724,849,771,747,881,799C881,799,928,728,1016,764C1016,764,1065,646,1182,700C1182,700,1283,635,1332,725C1332,725,1373,707,1418,734C1418,734,1473,637,1572,682C1572,682,1658,586,1716,694C1716,694,1799,693,1815,778C1815,778,1884,748,1920,780L1920,1080L0,1080Z" transform="scale(-1,1) translate(0,0)" fill="rgb(40,161,253)" stroke="none" stroke-width="1"/></g><g id="er1mc4i67ixn3_to" transform="translate(0,-642.680000)"><path id="er1mc4i67ixn3" d="M0,728C50,692,117,741,117,741C117,741,297,590,364,822C364,822,399,821,437,865C437,865,524,794,598,877C598,877,644,812,724,849C724,849,771,747,881,799C881,799,928,728,1016,764C1016,764,1065,646,1182,700C1182,700,1283,635,1332,725C1332,725,1373,707,1418,734C1418,734,1473,637,1572,682C1572,682,1658,586,1716,694C1716,694,1799,693,1815,778C1815,778,1884,748,1920,780L1920,1080L0,1080Z" transform="translate(0,0)" fill="rgb(40,161,253)" stroke="none" stroke-width="1"/></g><g id="er1mc4i67ixn4_to" transform="translate(1920,-642.681445)"><path id="er1mc4i67ixn4" d="M0,728C50,692,117,741,117,741C117,741,297,590,364,822C364,822,399,821,437,865C437,865,524,794,598,877C598,877,644,812,724,849C724,849,771,747,881,799C881,799,928,728,1016,764C1016,764,1065,646,1182,700C1182,700,1283,635,1332,725C1332,725,1373,707,1418,734C1418,734,1473,637,1572,682C1572,682,1658,586,1716,694C1716,694,1799,693,1815,778C1815,778,1884,748,1920,780L1920,1080L0,1080Z" transform="translate(0,0)" fill="rgb(40,161,253)" stroke="none" stroke-width="1"/></g></svg>