<svg id="e9p5kwgb33a41" xmlns="http://www.w3.org/2000/svg" xmlns:xlink="http://www.w3.org/1999/xlink" viewBox="0 0 1920 538.280000" shape-rendering="geometricPrecision" text-rendering="geometricPrecision"><style><![CDATA[#e9p5kwgb33a42_to {animation: e9p5kwgb33a42_to__to 8000ms linear infinite normal forwards}@keyframes e9p5kwgb33a42_to__to { 0% {transform: translate(0px,-541.719971px)} 50% {transform: translate(-1900px,-541.719971px)} 100% {transform: translate(-3840px,-541.719971px)} }#e9p5kwgb33a43_to {animation: e9p5kwgb33a43_to__to 8000ms linear infinite normal forwards}@keyframes e9p5kwgb33a43_to__to { 0% {transform: translate(3820px,-541.719971px)} 50% {transform: translate(1920px,-541.721633px)} 100% {transform: translate(20px,-541.721633px)} }#e9p5kwgb33a44_to {animation: e9p5kwgb33a44_to__to 8000ms linear infinite normal forwards}@keyframes e9p5kwgb33a44_to__to { 0% {transform: translate(3820px,-541.719971px)} 50% {transform: translate(1900px,-541.721633px)} 100% {transform: translate(-0px,-541.719971px)} }]]></style><g id="e9p5kwgb33a42_to" transform="translate(0,-541.719971)"><path id="e9p5kwgb33a42" d="M0,812C85,793,99,872,99,872C99,872,145,819,198,861C198,861,233,760,323,811C323,811,389,699,469,795C469,795,506,775,539,800C539,800,575,728,654,754C654,754,684,714,748,732C748,732,799,647,867,722C867,722,903,690,947,709C947,709,989,646,1043,672C1043,672,1077,614,1144,643C1144,643,1215,594,1259,673C1259,673,1333,624,1348,711C1348,711,1409,672,1448,713C1448,713,1561,592,1626,760C1626,760,1669,715,1717,737C1717,737,1705,666,1757,651C1755.680000,654.200000,1743,494,1883,556C1883,556,1909,536,1920,544L1920,1080L0,1080Z" transform="translate(0,0)" fill="rgb(18,140,255)" stroke="none" stroke-width="1"/></g><g id="e9p5kwgb33a43_to" transform="translate(3820,-541.719971)"><path id="e9p5kwgb33a43" d="M0,812C85,793,99,872,99,872C99,872,145,819,198,861C198,861,233,760,323,811C323,811,389,699,469,795C469,795,506,775,539,800C539,800,575,728,654,754C654,754,684,714,748,732C748,732,799,647,867,722C867,722,903,690,947,709C947,709,989,646,1043,672C1043,672,1077,614,1144,643C1144,643,1215,594,1259,673C1259,673,1333,624,1348,711C1348,711,1409,672,1448,713C1448,713,1561,592,1626,760C1626,760,1669,715,1717,737C1717,737,1705,666,1757,651C1755.680000,654.200000,1743,494,1883,556C1883,556,1909,536,1920,544L1920,1080L0,1080Z" transform="scale(-1,1) translate(0,0)" fill="rgb(18,140,255)" stroke="none" stroke-width="1"/></g><g id="e9p5kwgb33a44_to" transform="translate(3820,-541.719971)"><path id="e9p5kwgb33a44" d="M0,812C85,793,99,872,99,872C99,872,145,819,198,861C198,861,233,760,323,811C323,811,389,699,469,795C469,795,506,775,539,800C539,800,575,728,654,754C654,754,684,714,748,732C748,732,799,647,867,722C867,722,903,690,947,709C947,709,989,646,1043,672C1043,672,1077,614,1144,643C1144,643,1215,594,1259,673C1259,673,1333,624,1348,711C1348,711,1409,672,1448,713C1448,713,1561,592,1626,760C1626,760,1669,715,1717,737C1717,737,1705,666,1757,651C1755.680000,654.200000,1743,494,1883,556C1883,556,1909,536,1920,544L1920,1080L0,1080Z" transform="translate(0,0)" fill="rgb(18,140,255)" stroke="none" stroke-width="1"/></g></svg>